<svg width="189" height="27" viewBox="0 0 189 27" fill="none" xmlns="http://www.w3.org/2000/svg">
<path d="M13.184 26.324C10.688 26.324 8.504 25.796 6.632 24.74C4.76 23.684 3.32 22.172 2.312 20.204C1.304 18.236 0.8 15.932 0.8 13.292C0.8 10.652 1.304 8.36 2.312 6.416C3.32 4.448 4.76 2.936 6.632 1.88C8.504 0.823999 10.688 0.295998 13.184 0.295998C16.328 0.295998 19.04 1.16 21.32 2.888C21.68 3.176 21.932 3.464 22.076 3.752C22.22 4.04 22.292 4.4 22.292 4.832C22.292 5.456 22.112 5.996 21.752 6.452C21.416 6.884 20.996 7.1 20.492 7.1C20.156 7.1 19.856 7.064 19.592 6.992C19.352 6.896 19.076 6.74 18.764 6.524C17.804 5.9 16.916 5.456 16.1 5.192C15.284 4.904 14.408 4.76 13.472 4.76C11.168 4.76 9.428 5.48 8.252 6.92C7.1 8.336 6.524 10.46 6.524 13.292C6.524 19.004 8.84 21.86 13.472 21.86C14.36 21.86 15.2 21.728 15.992 21.464C16.784 21.176 17.708 20.72 18.764 20.096C19.124 19.88 19.424 19.736 19.664 19.664C19.904 19.568 20.18 19.52 20.492 19.52C20.996 19.52 21.416 19.748 21.752 20.204C22.112 20.636 22.292 21.164 22.292 21.788C22.292 22.22 22.208 22.592 22.04 22.904C21.896 23.192 21.656 23.468 21.32 23.732C19.04 25.46 16.328 26.324 13.184 26.324ZM49.2189 22.58C49.4109 23.012 49.5069 23.396 49.5069 23.732C49.5069 24.404 49.2309 24.98 48.6789 25.46C48.1509 25.916 47.5389 26.144 46.8429 26.144C46.3869 26.144 45.9549 26.024 45.5469 25.784C45.1389 25.52 44.8269 25.136 44.6109 24.632L42.7029 20.384H30.4989L28.5909 24.632C28.3749 25.136 28.0629 25.52 27.6549 25.784C27.2709 26.024 26.8389 26.144 26.3589 26.144C25.6629 26.144 25.0389 25.916 24.4869 25.46C23.9349 24.98 23.6589 24.404 23.6589 23.732C23.6589 23.396 23.7549 23.012 23.9469 22.58L33.6669 2.168C33.9309 1.592 34.3269 1.16 34.8549 0.872C35.3829 0.559999 35.9469 0.403999 36.5469 0.403999C37.1709 0.403999 37.7469 0.559999 38.2749 0.872C38.8029 1.184 39.2109 1.616 39.4989 2.168L49.2189 22.58ZM32.4069 16.136H40.7949L36.6189 6.776L32.4069 16.136ZM55.23 26C54.39 26 53.742 25.772 53.286 25.316C52.83 24.86 52.602 24.212 52.602 23.372V3.212C52.602 2.372 52.854 1.7 53.358 1.196C53.862 0.691999 54.546 0.439999 55.41 0.439999C56.274 0.439999 56.958 0.691999 57.462 1.196C57.966 1.7 58.218 2.372 58.218 3.212V21.428H67.434C69.186 21.428 70.062 22.196 70.062 23.732C70.062 25.244 69.186 26 67.434 26H55.23ZM83.1098 26.324C80.5898 26.324 78.3938 25.796 76.5218 24.74C74.6738 23.66 73.2458 22.148 72.2378 20.204C71.2298 18.236 70.7258 15.932 70.7258 13.292C70.7258 10.652 71.2298 8.36 72.2378 6.416C73.2458 4.448 74.6738 2.936 76.5218 1.88C78.3938 0.823999 80.5898 0.295998 83.1098 0.295998C85.6298 0.295998 87.8138 0.823999 89.6618 1.88C91.5338 2.936 92.9738 4.448 93.9818 6.416C94.9898 8.36 95.4938 10.652 95.4938 13.292C95.4938 15.932 94.9898 18.236 93.9818 20.204C92.9738 22.148 91.5338 23.66 89.6618 24.74C87.8138 25.796 85.6298 26.324 83.1098 26.324ZM83.1098 21.968C85.2218 21.968 86.8778 21.224 88.0778 19.736C89.3018 18.248 89.9138 16.1 89.9138 13.292C89.9138 10.484 89.3138 8.348 88.1138 6.884C86.9138 5.396 85.2458 4.652 83.1098 4.652C80.9738 4.652 79.3058 5.396 78.1058 6.884C76.9298 8.348 76.3418 10.484 76.3418 13.292C76.3418 16.1 76.9418 18.248 78.1418 19.736C79.3418 21.224 80.9978 21.968 83.1098 21.968ZM120.59 22.436C120.95 22.964 121.13 23.48 121.13 23.984C121.13 24.656 120.854 25.208 120.302 25.64C119.774 26.072 119.15 26.288 118.43 26.288C117.974 26.288 117.53 26.18 117.098 25.964C116.666 25.748 116.306 25.412 116.018 24.956L111.266 17.9C110.858 17.276 110.426 16.832 109.97 16.568C109.514 16.28 108.938 16.136 108.242 16.136H105.326V23.408C105.326 24.272 105.074 24.956 104.57 25.46C104.09 25.964 103.43 26.216 102.59 26.216C101.726 26.216 101.042 25.964 100.538 25.46C100.034 24.956 99.7817 24.272 99.7817 23.408V3.248C99.7817 2.408 100.01 1.76 100.466 1.304C100.922 0.847998 101.57 0.619998 102.41 0.619998H111.446C114.422 0.619998 116.666 1.28 118.178 2.6C119.714 3.896 120.482 5.78 120.482 8.252C120.482 10.196 119.942 11.816 118.862 13.112C117.782 14.408 116.258 15.26 114.29 15.668C115.01 15.812 115.646 16.1 116.198 16.532C116.774 16.94 117.326 17.54 117.854 18.332L120.59 22.436ZM110.618 11.888C112.226 11.888 113.39 11.612 114.11 11.06C114.83 10.484 115.19 9.596 115.19 8.396C115.19 7.172 114.83 6.284 114.11 5.732C113.39 5.18 112.226 4.904 110.618 4.904H105.254V11.888H110.618ZM127.832 26.216C126.968 26.216 126.284 25.964 125.78 25.46C125.276 24.956 125.024 24.272 125.024 23.408V3.212C125.024 2.372 125.276 1.7 125.78 1.196C126.284 0.691999 126.968 0.439999 127.832 0.439999C128.696 0.439999 129.38 0.691999 129.884 1.196C130.388 1.7 130.64 2.372 130.64 3.212V23.408C130.64 24.272 130.388 24.956 129.884 25.46C129.38 25.964 128.696 26.216 127.832 26.216ZM138.304 26C137.464 26 136.816 25.772 136.36 25.316C135.904 24.86 135.676 24.212 135.676 23.372V3.212C135.676 2.372 135.928 1.7 136.432 1.196C136.936 0.691999 137.62 0.439999 138.484 0.439999C139.348 0.439999 140.032 0.691999 140.536 1.196C141.04 1.7 141.292 2.372 141.292 3.212V21.428H150.508C152.26 21.428 153.136 22.196 153.136 23.732C153.136 25.244 152.26 26 150.508 26H138.304ZM158.769 26.216C157.905 26.216 157.221 25.964 156.717 25.46C156.213 24.956 155.961 24.272 155.961 23.408V3.212C155.961 2.372 156.213 1.7 156.717 1.196C157.221 0.691999 157.905 0.439999 158.769 0.439999C159.633 0.439999 160.317 0.691999 160.821 1.196C161.325 1.7 161.577 2.372 161.577 3.212V23.408C161.577 24.272 161.325 24.956 160.821 25.46C160.317 25.964 159.633 26.216 158.769 26.216ZM185.982 0.439999C186.774 0.439999 187.41 0.703999 187.89 1.232C188.394 1.736 188.646 2.396 188.646 3.212V23.408C188.646 24.248 188.394 24.932 187.89 25.46C187.41 25.964 186.774 26.216 185.982 26.216C185.118 26.216 184.422 25.904 183.894 25.28L171.834 9.836V23.408C171.834 24.248 171.594 24.932 171.114 25.46C170.658 25.964 170.034 26.216 169.242 26.216C168.45 26.216 167.814 25.964 167.334 25.46C166.854 24.932 166.614 24.248 166.614 23.408V3.212C166.614 2.396 166.854 1.736 167.334 1.232C167.838 0.703999 168.486 0.439999 169.278 0.439999C170.166 0.439999 170.85 0.751999 171.33 1.376L183.39 16.712V3.212C183.39 2.396 183.63 1.736 184.11 1.232C184.59 0.703999 185.214 0.439999 185.982 0.439999Z" fill="white"/>
</svg>
